<svg id="Capa_1" enable-background="new 0 0 501.747 501.747" height="512" viewBox="0 0 501.747 501.747" width="512" xmlns="http://www.w3.org/2000/svg"><path d="m313.108 467.068v-358.336c0-34.247-27.763-62.011-62.01-62.011h-.449c-34.247 0-62.01 27.763-62.01 62.011v358.335h124.469z" fill="#ffefd2"/><path d="m251.098 46.722h-.449c-5.094 0-10.039.627-14.776 1.786 27.111 6.63 47.235 31.071 47.235 60.225v358.335h30v-358.336c0-34.247-27.763-62.01-62.01-62.01z" fill="#fedba6"/><path d="m386.488 501.747h-271.229c-6.664 0-12.067-5.402-12.067-12.067v-22.852c0-16.304 13.217-29.522 29.522-29.522h236.319c16.304 0 29.522 13.217 29.522 29.522v22.852c0 6.665-5.403 12.067-12.067 12.067z" fill="#c5d3dd"/><path d="m369.033 437.306h-30c16.305 0 29.522 13.217 29.522 29.522v22.852c0 6.664-5.403 12.067-12.067 12.067h30c6.664 0 12.067-5.402 12.067-12.067v-22.852c0-16.304-13.218-29.522-29.522-29.522z" fill="#b6c4cf"/><path d="m417.964 164.371h-334.18c-10.411 0-18.85-8.439-18.85-18.85v-8.715c0-10.411 8.439-18.85 18.85-18.85h334.18c10.411 0 18.85 8.439 18.85 18.85v8.715c0 10.411-8.44 18.85-18.85 18.85z" fill="#c5d3dd"/><g fill="#9facba"><path d="m140.874 218.572c-4.143 0-7.5-3.358-7.5-7.5v-33.155c0-4.142 3.357-7.5 7.5-7.5s7.5 3.358 7.5 7.5v33.155c0 4.142-3.358 7.5-7.5 7.5z"/><path d="m250.874 218.572c-4.143 0-7.5-3.358-7.5-7.5v-33.155c0-4.142 3.357-7.5 7.5-7.5s7.5 3.358 7.5 7.5v33.155c0 4.142-3.358 7.5-7.5 7.5z"/><path d="m360.874 218.572c-4.143 0-7.5-3.358-7.5-7.5v-33.155c0-4.142 3.357-7.5 7.5-7.5s7.5 3.358 7.5 7.5v33.155c0 4.142-3.358 7.5-7.5 7.5z"/></g><path d="m225.937 321.936c-4.143 0-7.5-3.358-7.5-7.5v-57.542c0-4.142 3.357-7.5 7.5-7.5s7.5 3.358 7.5 7.5v57.542c0 4.142-3.357 7.5-7.5 7.5z" fill="#fedba6"/><path d="m261.056 376.511c-4.143 0-7.5-3.358-7.5-7.5v-57.541c0-4.142 3.357-7.5 7.5-7.5s7.5 3.358 7.5 7.5v57.542c0 4.141-3.357 7.499-7.5 7.499z" fill="#fedba6"/><path d="m140.982 0c-16.204 0-29.388 13.184-29.388 29.388 0 .431.037.861.111 1.286l12.859 73.906c.625 3.592 3.742 6.214 7.389 6.214h18.057c3.646 0 6.764-2.622 7.389-6.214l12.86-73.906c.074-.424.111-.855.111-1.286.001-16.204-13.183-29.388-29.388-29.388z" fill="#7a8c98"/><path d="m250.874 0c-16.205 0-29.389 13.184-29.389 29.388 0 .431.037.861.111 1.286l12.86 73.906c.625 3.592 3.742 6.214 7.389 6.214h18.057c3.647 0 6.764-2.622 7.389-6.214l12.86-73.906c.074-.424.111-.855.111-1.286 0-16.204-13.183-29.388-29.388-29.388z" fill="#7a8c98"/><path d="m360.764 0c-16.204 0-29.388 13.184-29.388 29.388 0 .431.037.861.111 1.286l12.859 73.906c.625 3.592 3.742 6.214 7.389 6.214h18.058c3.647 0 6.764-2.622 7.389-6.214l12.859-73.906c.074-.424.111-.855.111-1.286.001-16.204-13.183-29.388-29.388-29.388z" fill="#7a8c98"/><circle cx="140.874" cy="140.685" fill="#fdb441" r="43.731"/><path d="m140.874 96.955c-5.267 0-10.32.936-15 2.651 16.747 6.134 28.73 22.234 28.73 41.08s-11.983 34.946-28.73 41.08c4.68 1.714 9.733 2.651 15 2.651 24.113 0 43.73-19.618 43.73-43.731s-19.617-43.731-43.73-43.731z" fill="#fea613"/><circle cx="250.874" cy="140.685" fill="#6ed5a1" r="43.731"/><path d="m250.874 96.955c-5.267 0-10.32.936-15 2.651 16.747 6.134 28.73 22.234 28.73 41.08s-11.983 34.946-28.73 41.08c4.68 1.714 9.733 2.651 15 2.651 24.113 0 43.73-19.618 43.73-43.731s-19.617-43.731-43.73-43.731z" fill="#46cc8d"/><circle cx="360.874" cy="140.685" fill="#c86d36" r="43.731"/><path d="m360.874 96.955c-5.267 0-10.32.936-15 2.651 16.747 6.134 28.73 22.234 28.73 41.08s-11.983 34.946-28.73 41.08c4.68 1.714 9.733 2.651 15 2.651 24.113 0 43.73-19.618 43.73-43.731s-19.617-43.731-43.73-43.731z" fill="#ac5e2e"/></svg>