<svg id="Capa_1" enable-background="new 0 0 512 512" height="512" viewBox="0 0 512 512" width="512" xmlns="http://www.w3.org/2000/svg"><path d="m434.08 293.256c-2.555 0-5.055-1.268-6.526-3.58-.103-.155-2.569-3.86-6.694-6.459-4.889-3.079-9.978-3.261-15.563-.55-3.842 1.864-8.463.261-10.324-3.577-1.863-3.839-.262-8.461 3.577-10.324 20.693-10.042 36.564 3.887 42.067 12.657 2.269 3.614 1.177 8.382-2.438 10.651-1.275.8-2.695 1.182-4.099 1.182z" fill="#454045"/><path d="m451.047 319.619 17.116-17.116c2.491-2.491 2.491-6.53 0-9.021l-20.286-20.286c-2.491-2.491-6.53-2.491-9.021 0l-17.116 17.116c-2.491 2.491-2.491 6.53 0 9.021l20.286 20.286c2.491 2.491 6.53 2.491 9.021 0z" fill="#f1f1f4"/><path d="m377.615 512h-304.315c-17.304 0-31.332-14.028-31.332-31.332v-449.336c0-17.304 14.028-31.332 31.332-31.332h304.315c17.304 0 31.332 14.028 31.332 31.332v449.337c-.001 17.303-14.028 31.331-31.332 31.331z" fill="#868086"/><path d="m378.51 0h-26.988c16.81 0 30.436 13.627 30.436 30.436v451.127c0 16.81-13.627 30.437-30.436 30.437h26.988c16.81 0 30.437-13.627 30.437-30.437v-451.126c-.001-16.81-13.628-30.437-30.437-30.437z" fill="#787078"/><circle cx="225.457" cy="358.211" fill="#544f57" r="113.543"/><path d="m225.457 244.669c-3.118 0-6.206.131-9.261.378 58.376 4.713 104.282 53.575 104.282 113.165s-45.906 108.452-104.282 113.165c3.055.247 6.142.378 9.261.378 62.708 0 113.542-50.835 113.542-113.543s-50.834-113.543-113.542-113.543z" fill="#454045"/><circle cx="225.457" cy="358.211" fill="#5490f9" r="44.255"/><path d="m225.457 313.956c-2.792 0-5.52.271-8.168.765 20.537 3.834 36.086 21.841 36.086 43.49s-15.549 39.655-36.086 43.49c2.649.495 5.376.765 8.168.765 24.441 0 44.255-19.814 44.255-44.255s-19.814-44.255-44.255-44.255z" fill="#4a81f6"/><path d="m71.174 41.251c-4.268 0-7.726-3.459-7.726-7.726v-3.675c0-4.267 3.459-7.726 7.726-7.726s7.726 3.459 7.726 7.726v3.674c0 4.268-3.458 7.727-7.726 7.727z" fill="#454045"/><path d="m379.74 41.251c-4.268 0-7.726-3.459-7.726-7.726v-3.675c0-4.267 3.459-7.726 7.726-7.726s7.726 3.459 7.726 7.726v3.674c.001 4.268-3.458 7.727-7.726 7.727z" fill="#454045"/><path d="m71.174 489.876c-4.268 0-7.726-3.459-7.726-7.726v-3.674c0-4.268 3.459-7.726 7.726-7.726s7.726 3.459 7.726 7.726v3.674c0 4.267-3.458 7.726-7.726 7.726z" fill="#454045"/><path d="m379.74 489.876c-4.268 0-7.726-3.459-7.726-7.726v-3.674c0-4.268 3.459-7.726 7.726-7.726s7.726 3.459 7.726 7.726v3.674c.001 4.267-3.458 7.726-7.726 7.726z" fill="#454045"/><g fill="#868086"><path d="m225.458 291.79c-4.268 0-7.726-3.459-7.726-7.726v-2.33c0-4.268 3.459-7.726 7.726-7.726s7.726 3.459 7.726 7.726v2.33c0 4.267-3.459 7.726-7.726 7.726z"/><path d="m277.887 313.507c-1.978 0-3.956-.755-5.465-2.265-3.017-3.018-3.015-7.91.003-10.927l1.648-1.647c3.016-3.017 7.908-3.016 10.927.003 3.017 3.018 3.015 7.91-.003 10.927l-1.648 1.647c-1.508 1.509-3.485 2.262-5.462 2.262z"/><path d="m301.935 365.938h-2.33c-4.268 0-7.726-3.459-7.726-7.726s3.459-7.726 7.726-7.726h2.33c4.268 0 7.726 3.459 7.726 7.726s-3.459 7.726-7.726 7.726z"/><path d="m279.535 420.015c-1.977 0-3.955-.755-5.464-2.263l-1.648-1.648c-3.017-3.018-3.017-7.909 0-10.928 3.018-3.016 7.909-3.016 10.928 0l1.648 1.648c3.017 3.018 3.017 7.909 0 10.928-1.509 1.509-3.487 2.263-5.464 2.263z"/><path d="m225.458 442.415c-4.268 0-7.726-3.459-7.726-7.726v-2.33c0-4.268 3.459-7.726 7.726-7.726s7.726 3.459 7.726 7.726v2.33c0 4.267-3.459 7.726-7.726 7.726z"/><path d="m171.38 420.015c-1.977 0-3.953-.754-5.462-2.262-3.018-3.016-3.02-7.908-.003-10.927l1.647-1.648c3.014-3.02 7.906-3.02 10.927-.003 3.018 3.016 3.02 7.908.003 10.927l-1.647 1.648c-1.508 1.511-3.487 2.265-5.465 2.265z"/><path d="m151.31 365.938h-2.33c-4.268 0-7.726-3.459-7.726-7.726s3.459-7.726 7.726-7.726h2.33c4.268 0 7.726 3.459 7.726 7.726s-3.459 7.726-7.726 7.726z"/><path d="m173.027 313.507c-1.977 0-3.955-.755-5.464-2.263l-1.647-1.647c-3.017-3.018-3.017-7.909 0-10.928 3.018-3.016 7.909-3.016 10.928 0l1.647 1.647c3.017 3.018 3.017 7.909 0 10.928-1.509 1.509-3.487 2.263-5.464 2.263z"/></g><path d="m225.458 370.334c-4.268 0-7.726-3.459-7.726-7.726v-8.794c0-4.268 3.459-7.726 7.726-7.726s7.726 3.459 7.726 7.726v8.794c0 4.268-3.459 7.726-7.726 7.726z" fill="#454045"/><circle cx="225.457" cy="146.268" fill="#544f57" r="60.592"/><path d="m225.457 85.676c-2.971 0-5.889.224-8.746.637 29.318 4.24 51.846 29.462 51.846 59.955s-22.528 55.715-51.846 59.955c2.857.413 5.775.637 8.746.637 33.464 0 60.592-27.128 60.592-60.592s-27.128-60.592-60.592-60.592z" fill="#454045"/><path d="m225.458 136.503c-4.268 0-7.726-3.459-7.726-7.726v-9.497c0-4.267 3.459-7.726 7.726-7.726s7.726 3.459 7.726 7.726v9.497c0 4.267-3.459 7.726-7.726 7.726z" fill="#868086"/><path d="m252.446 153.994h-9.497c-4.268 0-7.726-3.459-7.726-7.726s3.459-7.726 7.726-7.726h9.497c4.268 0 7.726 3.459 7.726 7.726s-3.459 7.726-7.726 7.726z" fill="#868086"/><path d="m225.458 180.983c-4.268 0-7.726-3.459-7.726-7.726v-9.497c0-4.267 3.459-7.726 7.726-7.726s7.726 3.459 7.726 7.726v9.497c0 4.266-3.459 7.726-7.726 7.726z" fill="#868086"/><path d="m207.967 153.994h-9.498c-4.268 0-7.726-3.459-7.726-7.726s3.459-7.726 7.726-7.726h9.498c4.268 0 7.726 3.459 7.726 7.726s-3.459 7.726-7.726 7.726z" fill="#868086"/><path d="m191.016 60.3h-58.632c-8.562 0-15.503-6.941-15.503-15.503v-44.797h91.085v43.35c0 9.361-7.589 16.95-16.95 16.95z" fill="#5490f9"/><path d="m192.285 0v44.329c0 8.821-7.15 15.971-15.971 15.971h15.681c8.821 0 15.971-7.15 15.971-15.971v-44.329z" fill="#4a81f6"/><path d="m329.208 73.476h-17.481c-5.408 0-9.792-4.384-9.792-9.792v-27.34c0-5.408 4.384-9.792 9.792-9.792h17.481c5.408 0 9.792 4.384 9.792 9.792v27.34c0 5.408-4.384 9.792-9.792 9.792z" fill="#d82e3d"/><path d="m174.541 37.877h-24.234c-4.268 0-7.726-3.459-7.726-7.726s3.459-7.726 7.726-7.726h24.234c4.268 0 7.726 3.459 7.726 7.726s-3.458 7.726-7.726 7.726z" fill="#544f57"/><circle cx="225.457" cy="146.268" fill="#5490f9" r="19.759"/></svg>