<svg height="512pt" viewBox="0 0 512 512" width="512pt" xmlns="http://www.w3.org/2000/svg"><path d="m196 90c0 49.707031-40.292969 90-90 90s-90-40.292969-90-90 40.292969-90 90-90 90 40.292969 90 90zm0 0" fill="#465a61"/><path d="m376 90c0 49.707031-40.292969 90-90 90s-90-40.292969-90-90 40.292969-90 90-90 90 40.292969 90 90zm0 0" fill="#3b4a51"/><path d="m298.898438 496.699219-25.796876 15.300781-77.101562-136.699219-77.101562 136.699219-25.796876-15.300781 90-159.5 12.898438 7.800781 12.898438-7.800781zm0 0" fill="#465a61"/><path d="m298.898438 496.699219-25.796876 15.300781-77.101562-136.699219v-30.300781l12.898438-7.800781zm0 0" fill="#3b4a51"/><path d="m372.367188 210.453125v119.09375l139.632812 34.671875v-188.4375zm0 0" fill="#3b4a51"/><path d="m0 180v180h391v-180zm0 0" fill="#697c86"/><path d="m196 180h195v180h-195zm0 0" fill="#596c76"/><path d="m106 135c-24.8125 0-45-20.1875-45-45s20.1875-45 45-45 45 20.1875 45 45-20.1875 45-45 45zm0 0" fill="#ececf1"/><path d="m316 233.785156 21.210938 21.210938-21.210938 21.210937-21.210938-21.210937zm0 0" fill="#ff4949"/><path d="m256 233.785156 21.210938 21.210938-21.210938 21.210937-21.210938-21.210937zm0 0" fill="#ff4949"/><path d="m106 75c-8.277344 0-15 6.722656-15 15s6.722656 15 15 15 15-6.722656 15-15-6.722656-15-15-15zm0 0" fill="#465a61"/><path d="m286 135c-24.8125 0-45-20.1875-45-45s20.1875-45 45-45 45 20.1875 45 45-20.1875 45-45 45zm0 0" fill="#e2e2e7"/><path d="m286 75c-8.277344 0-15 6.722656-15 15s6.722656 15 15 15 15-6.722656 15-15-6.722656-15-15-15zm0 0" fill="#3b4a51"/></svg>