<svg height="512pt" viewBox="0 0 512.00005 512" width="512pt" xmlns="http://www.w3.org/2000/svg"><path d="m141.054688 229.632812c-17.910157 1.210938-35.65625 4.167969-52.992188 8.832032l-52.992188-35.328125v74.550781c-51.429687 58.605469-45.617187 147.804688 12.988282 199.234375 58.601562 51.433594 147.800781 45.617187 199.234375-12.984375 51.429687-58.601562 45.617187-147.804688-12.988281-199.234375-25.789063-22.632813-58.9375-35.101563-93.25-35.070313zm0 0" fill="#b3e4e8"/><path d="m512 141.3125c0-78.042969-63.269531-141.3125-141.3125-141.3125s-141.3125 63.269531-141.3125 141.3125 63.269531 141.3125 141.3125 141.3125c17.910156-1.210938 35.65625-4.167969 52.992188-8.832031l52.992187 35.328125v-74.550782c22.773437-25.726562 35.339844-58.898437 35.328125-93.257812zm0 0" fill="#b3e4e8"/><path d="m476.671875 141.3125c0 58.535156-47.449219 105.984375-105.984375 105.984375s-105.984375-47.449219-105.984375-105.984375 47.449219-105.984375 105.984375-105.984375 105.984375 47.449219 105.984375 105.984375zm0 0" fill="#eaeae8"/><path d="m449.523438 70.65625c-20.039063-22.480469-48.722657-35.332031-78.835938-35.328125v35.328125zm0 0" fill="#dc4d41"/><path d="m470.488281 105.984375c-4.0625-11.550781-10.097656-22.308594-17.839843-31.796875-1.128907-1.269531-2.191407-2.445312-3.125-3.488281h-78.835938v35.328125h99.800781zm0 0" fill="#3b869e"/><path d="m370.6875 105.984375v35.328125h105.984375c-.03125-12.042969-2.125-23.992188-6.183594-35.328125zm0 0" fill="#dc4d41"/><path d="m247.039062 370.945312c0 58.535157-47.449218 105.984376-105.984374 105.984376-58.53125 0-105.984376-47.449219-105.984376-105.984376 0-58.535156 47.453126-105.984374 105.984376-105.984374 58.535156 0 105.984374 47.449218 105.984374 105.984374zm0 0" fill="#ebebeb"/><g fill="#dc4d41"><path d="m176.382812 370.945312c0 19.511719-15.816406 35.328126-35.328124 35.328126-19.511719 0-35.328126-15.816407-35.328126-35.328126 0-19.511718 15.816407-35.328124 35.328126-35.328124 19.511718 0 35.328124 15.816406 35.328124 35.328124zm0 0"/><path d="m326.527344 61.824219h17.664062v17.664062h-17.664062zm0 0"/><path d="m326.527344 97.152344h17.664062v17.664062h-17.664062zm0 0"/><path d="m291.199219 97.152344h17.664062v17.664062h-17.664062zm0 0"/></g><path d="m318.472656 458.761719-5.191406-16.878907c5.378906-1.660156 10.730469-3.53125 15.894531-5.660156l6.644531 16.355469c-5.644531 2.269531-11.484374 4.382813-17.347656 6.183594zm65.285156-33.429688-10.660156-14.078125c4.488282-3.390625 8.832032-7.011718 13-10.765625l11.855469 13.089844c-4.523437 4.097656-9.292969 8.054687-14.195313 11.753906zm49.929688-53.6875-14.8125-9.628906c3.082031-4.742187 5.96875-9.644531 8.574219-14.554687l15.589843 8.292968c-2.84375 5.359375-5.996093 10.714844-9.351562 15.890625zm-348.175781-208.808593-15.492188-8.503907c2.957031-5.378906 6.183594-10.679687 9.554688-15.75l14.671875 9.796875c-3.074219 4.652344-6.023438 9.519532-8.734375 14.457032zm41.996093-52.496094-11.675781-13.25c4.609375-4.054688 9.429688-7.949219 14.332031-11.578125l10.492188 14.21875c-4.484375 3.3125-8.910156 6.882812-13.148438 10.609375zm57.363282-35.011719-6.449219-16.453125c5.628906-2.207031 11.484375-4.214844 17.425781-5.972656l5.007813 16.949218c-5.457031 1.609376-10.835938 3.453126-15.984375 5.476563zm0 0" fill="#fbb540"/><path d="m291.851562 211.96875c38.824219 43.539062 105.589844 47.363281 149.128907 8.542969 3.007812-2.683594 5.859375-5.535157 8.542969-8.542969zm0 0" fill="#3b869e"/><path d="m470.488281 176.640625c4.058594-11.339844 6.152344-23.285156 6.183594-35.328125h-211.96875c.035156 12.042969 2.125 23.992188 6.183594 35.328125zm0 0" fill="#3b869e"/><path d="m470.488281 176.640625h-199.601562c4.621093 13.035156 11.753906 25.035156 20.992187 35.328125h157.644532c9.226562-10.292969 16.351562-22.296875 20.964843-35.328125zm0 0" fill="#dc4d41"/></svg>